.
..............................Site Info...........................

 -   http://www.scenetime.com  *_*   

Scenetime .Always on time . friendly online private torrent community ..

     We care to share . Join us on  http://www.scenetime.com 

    Be the first to get new release at  http://www.scenetime.com

        Seed back for speed


...................................NFO:.................................................[img]http://i.imgur.com/P7iPC.jpg[/img]

[b]Dr.Seuss.The.Lorax.2012.TS.XviD.AC3-ADTRG[/b]

A 12-year-old boy searches for the one thing that will enable him to win the affection of the girl of his dreams. To find it he must discover the story of the Lorax, the grumpy yet charming creature who fights to protect his world.  

[url]http://www.imdb.com/title/tt1482459/[/url]

Source - Cam    LUM1X              Thanks
Source - Line   Dragon Exclusive   Thanks


Complete name                            : Dr.Seuss.The.Lorax.2012.TS.XviD.AC3-ADTRG.avi
Format                                   : AVI
Format/Info                              : Audio Video Interleave
File size                                : 765 MiB
Duration                                 : 1h 18mn
Overall bit rate                         : 1 364 Kbps
Writing library                          : VirtualDub build 34703/release

Video
ID                                       : 0
Format                                   : MPEG-4 Visual
Codec ID                                 : XVID
Duration                                 : 1h 18mn
Bit rate                                 : 1 163 Kbps
Width                                    : 720 pixels
Height                                   : 336 pixels
Display aspect ratio                     : 2.2:1
Frame rate                               : 25.000 fps
Stream size                              : 652 MiB (85%)
Writing library                          : XviD 1.2.1 (UTC 2008-12-04)

Audio
ID                                       : 1
Format                                   : AC-3
Bit rate                                 : 192 Kbps
Channel(s)                               : 2 channels
Channel positions                        : Front: L R
Sampling rate                            : 48.0 KHz
Stream size                              : 108 MiB (14%)




Encoder - LiMeY
It ain't easy being cheesy, that said here goes.
added life to video, blah blah blah ;)
audio was a pain to sync, source cam was butchered.
Just remember, Everyday day im shuffle'n
you know where we are, come and say hi ;)



[img]http://i.imgur.com/nSKAz.png[/img]
[img]http://i.imgur.com/OZerY.png[/img]
[img]http://i.imgur.com/NQxWb.png[/img]
[img]http://i.imgur.com/6gXLb.png[/img]
[img]http://i.imgur.com/ve7Jv.png[/img]
[img]http://i.imgur.com/iAFpc.png[/img]



Dont fear the Atomic Dragon, Embrace it  :)


Greetz to DragonMaster,cOOkies,Mr Geek,AnimeKing,Cush,NoWoRRiEs Rayne, Mr & Mrs IrNbRu and the rest of the crew

Respect to CM8,Goon,Hope,mSD,InfernO,legend-rg and maybe a few more ;)